<?xml version="1.0" encoding="UTF-8" standalone="no"?>
<!-- Creator: CorelDRAW X8 -->

<svg
   xmlns:dc="http://purl.org/dc/elements/1.1/"
   xmlns:cc="http://creativecommons.org/ns#"
   xmlns:rdf="http://www.w3.org/1999/02/22-rdf-syntax-ns#"
   xmlns:svg="http://www.w3.org/2000/svg"
   xmlns="http://www.w3.org/2000/svg"
   xmlns:sodipodi="http://sodipodi.sourceforge.net/DTD/sodipodi-0.dtd"
   xmlns:inkscape="http://www.inkscape.org/namespaces/inkscape"
   xml:space="preserve"
   width="180mm"
   height="70mm"
   version="1.1"
   style="clip-rule:evenodd;fill-rule:evenodd;image-rendering:optimizeQuality;shape-rendering:geometricPrecision;text-rendering:geometricPrecision"
   viewBox="0 0 18000 7000"
   id="svg2"
   inkscape:version="0.91 r13725"
   sodipodi:docname="lapig.svg"><metadata
     id="metadata29"><rdf:RDF><cc:Work
         rdf:about=""><dc:format>image/svg+xml</dc:format><dc:type
           rdf:resource="http://purl.org/dc/dcmitype/StillImage" /><dc:title></dc:title></cc:Work></rdf:RDF></metadata><sodipodi:namedview
     pagecolor="#ffffff"
     bordercolor="#666666"
     borderopacity="1"
     objecttolerance="10"
     gridtolerance="10"
     guidetolerance="10"
     inkscape:pageopacity="0"
     inkscape:pageshadow="2"
     inkscape:window-width="1920"
     inkscape:window-height="1020"
     id="namedview27"
     showgrid="false"
     inkscape:zoom="0.90509668"
     inkscape:cx="503.45855"
     inkscape:cy="-98.025717"
     inkscape:window-x="1280"
     inkscape:window-y="31"
     inkscape:window-maximized="1"
     inkscape:current-layer="svg2" /><defs
     id="defs4"><style
       type="text/css"
       id="style6"><![CDATA[
    .fil4 {fill:#FEFEFE}
    .fil3 {fill:#373435}
    .fil1 {fill:#429B4D}
    .fil0 {fill:#549151}
    .fil2 {fill:#F0F0F1;fill-rule:nonzero}
   ]]></style></defs><g
     id="g5562"
     transform="translate(27.371799,-63.808732)"><path
       class="fil3"
       d="m 1483.2617,1956.6536 c 68.7685,0 102.6396,33.9999 102.6396,102 l 0,1864.9996 c 0,125.0002 10.264,228 30.792,311.0002 19.5014,81.9999 53.3725,147.9999 100.5868,195.9999 46.1878,48.0001 109.8244,82.9999 188.8569,103.0002 80.059,19.9999 180.6459,29.9999 302.787,29.9999 l 1894.727,0 c 68.7696,0 103.6661,35.0001 103.6661,102.9998 l 0,458.0001 c 0,69 -34.8965,103.0002 -103.6661,103.0002 l -1923.4661,0 c -237.0975,0 -438.2713,-22.0001 -603.5211,-66.0003 -165.2498,-42.9999 -300.7343,-114 -405.4266,-211.9999 -103.6661,-98 -180.64588,-225.9999 -228.88654,-382.9999 -48.24056,-158.0001 -72.87413,-349 -72.87413,-573 l 0,-1934.9998 c 0,-68.0001 35.92388,-102 107.77162,-102 l 506.01355,0 z m 5179.1959,0 c 119.061,0 218.6215,23.9999 299.7069,72 81.0863,47.9999 161.1453,143 239.1503,283 l 1548.8324,2808.0007 c 15.396,31.999 19.5016,56.9991 12.3168,76.999 -8.2111,21.001 -30.7919,31.0002 -67.7422,31.0002 l -595.309,0 c -52.3472,0 -88.271,-19.9992 -107.7726,-61.0001 l -331.5261,-603 -2200.5932,0 -322.2875,603 c -22.5807,41.0009 -57.4792,61.0001 -107.7726,61.0001 l -608.6532,0 c -40.0295,0 -64.662,-9.9992 -72.8731,-31.0002 -7.1858,-19.9999 -3.0792,-45 12.3168,-76.999 L 5895.7394,2311.6536 c 78.0072,-140 153.9605,-235.0001 228.8865,-283 74.9259,-48.0001 162.1696,-72 261.7312,-72 l 276.1005,0 z m -907.3345,2064.9996 1609.3899,0 -744.1387,-1368.9996 c -12.3146,-22 -29.7654,-33 -51.3187,-33 l -27.7117,0 c -21.5554,0 -39.0041,11 -51.3209,33 L 5755.1231,4021.6532 Z M 11629.19,1956.6536 c 15.396,0 28.739,0 43.108,0 2.055,14 4.106,28 7.185,43 17.449,269 147.801,545 267.89,727 127.273,191 320.236,379 508.066,484.9997 l 21.554,20 c 27.713,19 102.64,56.9999 158.066,82 -7.185,293.9999 -85.191,517.0001 -232.993,671 -156.012,162.0001 -413.637,243.0001 -772.876,243.0001 l -1936.8107,0 0,896.9999 c 0,69 -34.8975,103.0002 -103.6661,103.0002 l -504.9871,0 c -71.8477,0 -107.7716,-34.0002 -107.7716,-103.0002 l 0,-3027.9997 c 0,-94.0002 46.1878,-140 140.6163,-140 l 2512.6192,0 z m -1936.8107,1653.9996 1792.0887,0 c 159.091,0 271.995,-33.9998 336.658,-102.9998 65.689,-68 98.534,-173.0002 98.534,-312.9998 l 0,-178 c 0,-140 -32.845,-244 -98.534,-313 -64.663,-68 -177.567,-102 -336.658,-102 l -1731.5314,0 c -41.0558,0 -60.5573,18 -60.5573,56 l 0,952.9996 z m 3950.5997,-162 0,1676.0001 c 0,69 -33.871,103.0002 -102.639,103.0002 l -506.013,0 c -71.848,0 -107.772,-34.0002 -107.772,-103.0002 l 0,-1707 c 225.808,58.0001 478.301,68 716.424,30.9999 z m 4096.348,-1491.9996 c 68.768,0 102.639,33.9999 102.639,102 l 0,458 c 0,72 -33.871,108 -102.639,108 l -2345.316,0 c -121.116,0 -221.7,10 -301.76,30 -79.033,21 -142.671,55 -189.885,103 -46.186,48 -80.059,113 -100.585,194 -19.503,81 -29.767,184 -29.767,307.9997 l 0,673 c 0,124.9999 10.264,228.9999 29.767,311.0002 20.526,82.9998 54.399,147.9998 100.585,195.9999 47.214,49 110.852,82.9999 189.885,102.9998 80.06,20.0011 180.644,31.0002 301.76,31.0002 l 1544.726,0 c 81.087,0 140.617,-21.0002 177.568,-62.9991 37.975,-43.0011 56.45,-117.0009 56.45,-222.0011 l 0,-378.9999 c 0,-39.9999 -18.475,-61.0001 -56.45,-61.0001 l -1371.267,0 c -68.767,0 -102.639,-36 -102.639,-107 l 0,-350.9998 c 0,-71.0001 33.872,-107.0001 102.639,-107.0001 l 1952.206,0 c 93.402,0 140.617,46.9999 140.617,140.0001 l 0,1088.9999 c 0,262.0002 -50.293,446 -149.853,554 -100.588,107 -243.258,161.0002 -431.087,161.0002 l -1890.622,0 c -237.098,0 -438.27,-22.0001 -603.521,-66.0003 -166.277,-42.9999 -300.734,-114 -405.427,-211.9999 -104.692,-98 -180.645,-225.9999 -228.886,-382.9999 -48.241,-158.0001 -72.874,-349 -72.874,-573 l 0,-667.0001 c 183.725,-80 356.158,-191.9997 491.645,-324.9997 35.922,-34 141.639,-136 168.326,-189 68.771,-56 179.621,-265 215.544,-353 66.716,-164.0001 108.798,-325.0001 125.219,-488.0002 95.457,-9.9999 199.123,-14.9998 309.974,-14.9998 l 2373.028,0 z"
       id="path19-5-7"
       inkscape:connector-curvature="0"
       style="clip-rule:evenodd;fill:#373435;fill-rule:evenodd;image-rendering:optimizeQuality;shape-rendering:geometricPrecision;text-rendering:geometricPrecision" /><path
       sodipodi:nodetypes="ccccccccccccccccccccscccccccccccccccccccccccccccccccccccccccccccccccccccccccccccccccccccccccccccccccccccccccccccccsccccccccccccccccc"
       class="fil0"
       d="m 14645.606,2698.6634 c 65.84,-54.191 171.406,-256.5778 206.595,-340.6291 124.867,-306.3451 162.323,-601.6307 95.353,-927.8826 -30.65,-147.0899 -78.326,-272.0606 -143.029,-398.1379 0,-2.212 -1.133,-7.7415 -2.271,-5.5297 -1.134,1.1059 -2.27,-5.5296 -3.406,-6.6355 -5.674,-8.8477 -6.809,-8.8477 -12.485,-14.3772 l -24.973,30.9663 c -2.27,40.9198 -14.756,68.5682 -27.244,100.6402 -27.242,0 -211.133,-56.4027 -217.945,-70.78 l 6.812,-58.6147 c -4.54,-25.43648 6.811,-8.84735 -13.622,-22.11889 -59.026,1.10583 -122.594,-4.42353 -181.622,-1.10583 -74.917,5.52969 -102.161,87.36922 -178.214,95.11082 -24.974,3.3178 -64.702,5.5297 -86.271,11.0594 -83.999,23.2248 -68.108,94.0048 -69.243,121.6533 -90.81,59.7207 -62.432,26.5425 -128.27,126.077 -43.134,65.2504 -28.376,116.1235 -28.376,226.7173 -1.135,140.4542 24.971,92.8988 82.864,172.5264 99.89,137.1364 38.595,178.0561 155.512,176.9501 21.568,0 53.352,1.1059 73.784,-2.2119 27.243,-4.4238 65.837,-34.2841 89.674,-50.8732 111.244,-81.8395 150.973,61.9325 170.271,70.7802 27.241,2.2119 63.568,-3.318 86.268,8.8474 13.623,28.7545 5.677,69.6742 7.948,108.382 4.54,54.191 23.837,39.8138 39.729,77.4157 14.757,34.2841 6.812,185.7977 6.812,233.3531 -1.136,116.1235 -52.217,76.3097 9.08,184.6917 18.16,33.1782 78.324,126.077 86.269,153.7255 z M 11727.085,1580.6257 c 3.102,11.4132 0.09,-0.065 0.09,-0.065 38.595,0 58.832,0.056 105.375,-1.0528 37.459,-1.1059 85.328,-0.056 123.922,2.159 34.054,1.1058 57.892,28.7543 79.46,42.0255 29.514,18.801 51.08,35.3901 71.512,51.9791 l 1.135,71.886 c 66.972,29.8605 104.43,66.3563 158.919,69.6742 53.352,3.3179 27.244,0 65.837,16.589 l 1.134,136.0306 c -54.486,21.0127 -26.108,16.5891 -61.297,56.4029 -36.324,39.8137 -23.838,163.6789 -5.676,195.7511 13.621,25.4366 26.108,48.6613 40.865,76.3097 63.566,117.2295 -5.676,110.5939 136.216,213.4462 20.432,15.4831 53.351,36.4959 68.107,49.7672 l -41.999,519.7911 21.568,18.801 c 38.592,26.5425 173.674,92.8988 206.593,99.534 15.892,-34.2837 269.026,-288.6495 306.485,-330.6752 59.027,-67.4622 62.433,-35.39 63.568,-149.3017 38.593,-27.6485 81.729,-57.5088 130.539,-87.3691 119.189,-74.0979 39.731,-112.8058 108.972,-218.9759 65.838,-103.9582 86.271,-77.4157 70.379,-256.5777 l -318.972,-99.5345 c -18.161,-12.1653 -45.405,-65.2505 -59.027,-88.4751 -76.052,-129.3948 -36.323,-58.6148 -173.674,-110.5938 -37.459,-14.3773 -135.081,-133.8186 -145.297,-139.3484 -47.677,-4.4236 -106.703,-3.3178 -155.513,-4.4236 -71.513,-1.1058 -71.513,29.8603 -121.46,29.8603 -26.108,3.3177 -98.756,16.5891 -141.89,-9.9535 -72.648,-45.3435 -9.082,-81.8395 -27.243,-122.7592 -14.757,-30.9663 -12.487,-12.1652 -24.973,-17.695 -31.784,-1.1058 -103.298,-11.0593 -123.73,-26.5424 -5.675,-46.4495 26.106,-40.9199 24.974,-96.2167 l -95.352,-6.6357 -22.703,48.6613 -52.215,-6.6357 c -10.217,-17.6949 -3.406,-7.7415 -15.893,-21.0128 -2.27,-3.3178 -12.486,-11.0594 -15.893,-13.2711 -12.484,-11.0595 -20.431,-14.3772 -35.188,-22.1189 0,-55.297 -10.215,-129.3948 0,-181.374 62.433,-57.5088 68.108,-7.7415 153.243,-23.2247 7.947,-13.2712 3.406,-3.3178 9.081,-13.2712 l 5.676,-12.1652 c 1.135,-1.1059 3.405,-3.318 4.541,-5.5298 9.081,-15.4832 106.701,-8.8474 129.405,-7.7415 9.081,14.3772 23.838,25.4365 23.838,47.5553 4.54,35.39 26.108,68.5681 51.08,86.2632 81.73,-8.8476 39.73,-86.2632 34.054,-151.5135 -3.405,-40.9199 6.811,-50.8733 30.647,-74.0979 l 55.622,-60.8267 c 23.838,-29.8604 34.055,-18.801 38.595,-74.09797 4.541,-69.67412 17.027,-33.17815 40.864,-72.99194 20.433,-32.07222 -1.132,-70.78006 20.433,-96.21665 15.892,-17.69502 61.298,-30.96628 85.135,-32.07222 31.784,36.49597 47.675,47.55536 111.244,44.23754 15.891,-1.10582 9.081,3.31782 24.971,-4.42375 29.513,-15.48314 5.677,0 17.029,-17.69502 19.297,-21.01283 35.188,-26.54252 44.27,-51.97911 -9.082,-9.95344 -19.298,-18.80095 -24.973,-25.43658 -4.54,-27.64847 -22.703,-30.96628 -49.946,-37.60191 11.351,-9.95345 -1.136,-3.31782 21.567,-13.27127 99.891,-46.44941 -15.891,-12.16532 113.514,-68.56818 49.945,-22.11877 69.243,3.31781 64.702,-45.34348 -2.271,-28.7544 -26.108,-64.14444 -47.676,-81.83956 -1.133,-1.10583 -3.406,-2.21199 -5.675,-3.31771 -27.244,-6.63563 -86.27,-44.23754 -98.758,-64.14443 -14.755,-23.22472 -44.269,-101.74635 -36.323,-122.75918 -115.784,34.28409 -322.378,172.52641 -412.052,251.04805 -124.866,107.27603 -219.081,207.91644 -309.893,347.26469 -160.051,244.41248 -230.706,384.97278 -241.882,695.42968 z M 12891.831,214.72516 c 36.325,0 74.92,51.97911 99.892,80.73351 47.676,56.40286 40.864,46.44942 141.892,40.91972 5.675,-79.62757 -24.975,-38.70785 36.324,-100.6404 24.972,-25.43659 55.621,-54.19097 77.188,-84.05131 -123.729,4.42375 -239.512,34.28409 -355.296,63.03848 z m 1427.994,398.13787 c -41.999,11.05938 -37.458,25.43658 -88.54,22.11877 -52.215,-3.31782 -46.539,-16.58908 -101.026,5.52969 1.134,32.07222 68.107,75.20382 78.324,79.62769 l 2.272,65.25026 c -54.486,35.39003 -144.161,2.2121 -205.459,17.69501 l -10.217,154.83151 c 52.217,26.54241 76.055,89.58104 147.568,77.41564 44.27,-7.7416 19.297,-2.212 28.378,-17.695 18.162,-30.96635 36.324,-57.50877 54.487,-86.26328 32.919,-50.87306 22.702,-47.55535 101.027,-53.08494 l 4.54,-55.29703 c 36.325,-16.58908 104.433,-13.27126 149.837,-5.5297 44.27,8.84751 259.945,137.13638 304.216,175.84423 -55.622,-81.83934 -80.595,-151.51358 -168,-252.15398 -39.731,-45.34348 -64.703,-72.99195 -102.162,-109.48792 -34.054,-34.28409 -72.649,-76.30975 -113.514,-98.42853 -10.215,23.22471 -57.891,60.82662 -81.728,79.62758 z m -9.08,-149.3017 c -32.919,-36.49597 -192.972,-131.60669 -237.242,-141.56014 4.54,39.81379 31.784,97.3226 44.27,132.71263 27.242,76.30976 -17.027,81.83945 -5.675,149.3017 45.402,2.21199 156.646,26.54252 169.132,-23.22471 l 10.217,-56.40286 c 3.405,-21.01284 1.134,-54.19099 19.298,-60.82662 z"
       id="path23-7-9"
       inkscape:connector-curvature="0"
       style="clip-rule:evenodd;fill:#549151;fill-rule:evenodd;image-rendering:optimizeQuality;shape-rendering:geometricPrecision;text-rendering:geometricPrecision" /><polygon
       class="fil0"
       points="3312,13513 18988,13513 18988,14261 2555,14261 "
       id="polygon10-6-6"
       style="clip-rule:evenodd;fill:#549151;fill-rule:evenodd;image-rendering:optimizeQuality;shape-rendering:geometricPrecision;text-rendering:geometricPrecision"
       transform="matrix(1.0263959,0,0,0.65628109,-1686.0141,-3421.1038)" /><g
       transform="matrix(1.1474936,0,0,1.5408401,-3902.168,-14887.049)"
       style="clip-rule:evenodd;fill:#373435;fill-opacity:1;fill-rule:evenodd;image-rendering:optimizeQuality;shape-rendering:geometricPrecision;text-rendering:geometricPrecision"
       id="_1480037792-1-0"><path
         class="fil2"
         d="m 3492,13648 73,0 0,350 135,0 0,60 -208,0 0,-410 z m 410,264 c -1,0 -3,0 -6,-1 -8,0 -15,-1 -20,-1 -26,0 -46,5 -59,14 -13,10 -19,24 -19,43 0,14 4,25 12,33 8,8 19,12 33,12 20,0 35,-6 45,-19 9,-13 14,-34 14,-61 l 0,-20 z m 69,-34 0,120 c 0,12 0,23 1,33 0,9 1,18 2,27 l -66,0 -4,-38 c -11,15 -23,26 -38,33 -14,8 -30,11 -48,11 -26,0 -47,-8 -63,-25 -17,-17 -25,-40 -25,-67 0,-34 13,-59 37,-77 24,-17 60,-26 106,-26 6,0 11,0 15,0 5,0 9,0 14,0 l 0,-13 c 0,-18 -5,-32 -16,-42 -10,-9 -25,-14 -45,-14 -14,0 -28,2 -41,7 -12,5 -24,12 -35,21 l -5,-57 c 16,-7 32,-13 48,-17 17,-4 33,-6 48,-6 42,0 72,10 89,28 17,19 26,53 26,102 z m 145,44 c 0,28 5,50 14,65 10,15 23,22 40,22 18,0 31,-8 40,-25 10,-18 14,-43 14,-77 0,-34 -4,-60 -14,-77 -9,-18 -22,-26 -40,-26 -17,0 -30,7 -40,23 -9,15 -14,36 -14,64 l 0,31 z m -70,-306 70,0 0,180 c 10,-17 20,-29 33,-36 12,-8 26,-12 44,-12 34,0 61,14 79,41 18,26 27,66 27,117 0,51 -9,90 -27,118 -19,27 -45,40 -79,40 -18,0 -33,-4 -46,-12 -13,-9 -25,-22 -34,-40 0,6 0,12 -1,19 0,6 -1,15 -2,27 l -64,0 0,-442 z m 428,185 c -18,0 -32,9 -42,28 -9,18 -14,44 -14,78 0,33 5,59 14,77 10,18 24,27 42,27 19,0 33,-9 42,-27 10,-17 15,-43 15,-77 0,-34 -5,-60 -15,-78 -10,-19 -24,-28 -42,-28 z m 0,-53 c 42,0 74,14 97,41 23,27 34,66 34,117 0,51 -11,90 -34,117 -23,27 -55,41 -97,41 -42,0 -74,-14 -97,-41 -22,-28 -34,-66 -34,-117 0,-51 12,-89 34,-117 23,-27 55,-41 97,-41 z m 346,1 0,67 c -1,0 -4,0 -8,-1 -4,0 -8,-1 -10,-1 -22,0 -38,7 -49,21 -11,14 -16,36 -16,65 l 0,158 -70,0 0,-233 c 0,-14 -1,-26 -1,-38 -1,-11 -1,-22 -2,-32 l 64,-1 0,2 c 2,19 2,33 2,42 l 0,9 c 8,-19 19,-34 32,-44 14,-9 30,-14 49,-14 0,0 0,0 0,0 3,0 6,0 9,0 z m 187,163 c -2,0 -3,0 -6,-1 -8,0 -15,-1 -20,-1 -26,0 -46,5 -59,14 -13,10 -19,24 -19,43 0,14 4,25 12,33 8,8 19,12 33,12 20,0 35,-6 44,-19 10,-13 15,-34 15,-61 l 0,-20 z m 69,-34 0,120 c 0,12 0,23 1,33 0,9 1,18 2,27 l -66,0 -4,-38 c -11,15 -24,26 -38,33 -14,8 -30,11 -48,11 -26,0 -47,-8 -64,-25 -16,-17 -24,-40 -24,-67 0,-34 12,-59 37,-77 24,-17 59,-26 106,-26 6,0 11,0 15,0 5,0 9,0 14,0 l 0,-13 c 0,-18 -6,-32 -16,-42 -10,-9 -25,-14 -45,-14 -14,0 -28,2 -41,7 -13,5 -25,12 -36,21 l -4,-57 c 16,-7 32,-13 48,-17 16,-4 32,-6 48,-6 42,0 72,10 89,28 17,19 26,53 26,102 z m 154,-207 0,84 59,0 0,51 -59,0 0,147 c 0,23 3,38 7,45 5,7 14,10 27,10 5,0 9,0 13,-1 5,-1 10,-2 15,-3 l 0,52 c -9,2 -18,4 -26,5 -8,1 -16,2 -24,2 -30,0 -52,-8 -64,-22 -12,-14 -18,-43 -18,-87 l 0,-148 -49,0 0,-51 49,0 0,-63 70,-21 z m 224,130 c -18,0 -32,9 -41,28 -10,18 -15,44 -15,78 0,33 5,59 15,77 9,18 23,27 41,27 19,0 33,-9 42,-27 10,-17 15,-43 15,-77 0,-34 -5,-60 -15,-78 -10,-19 -23,-28 -42,-28 z m 0,-53 c 42,0 74,14 97,41 23,27 34,66 34,117 0,51 -11,90 -34,117 -23,27 -55,41 -97,41 -42,0 -74,-14 -97,-41 -22,-28 -34,-66 -34,-117 0,-51 12,-89 34,-117 23,-27 55,-41 97,-41 z m 15,-136 64,0 -86,104 -36,0 58,-104 z m 331,137 0,67 c -1,0 -4,0 -8,-1 -4,0 -8,-1 -10,-1 -22,0 -38,7 -49,21 -11,14 -16,36 -16,65 l 0,158 -70,0 0,-233 c 0,-14 -1,-26 -1,-38 -1,-11 -1,-22 -2,-32 l 64,-1 0,2 c 2,19 2,33 2,42 l 0,9 c 8,-19 19,-34 32,-44 14,-9 30,-14 49,-14 0,0 0,0 0,0 3,0 6,0 9,0 z m 39,6 71,0 0,303 -71,0 0,-303 z m -1,-127 74,0 0,69 -74,0 0,-69 z m 263,173 c -18,0 -32,9 -42,28 -10,18 -14,44 -14,78 0,33 4,59 14,77 10,18 24,27 42,27 19,0 33,-9 42,-27 10,-17 14,-43 14,-77 0,-34 -4,-60 -14,-78 -10,-19 -24,-28 -42,-28 z m 0,-53 c 42,0 74,14 97,41 23,27 34,66 34,117 0,51 -11,90 -34,117 -23,27 -55,41 -97,41 -42,0 -74,-14 -97,-41 -23,-28 -34,-66 -34,-117 0,-51 11,-89 34,-117 23,-27 55,-41 97,-41 z m 509,143 c 0,-28 -5,-49 -14,-64 -10,-16 -23,-23 -40,-23 -18,0 -32,8 -41,26 -9,17 -13,43 -13,77 0,34 4,59 13,77 9,17 23,25 41,25 17,0 30,-7 40,-22 9,-16 14,-37 14,-65 l 0,-31 z m 0,-275 70,0 0,442 -64,0 c -2,-11 -2,-19 -3,-26 0,-7 0,-13 0,-20 -10,18 -21,32 -34,40 -13,8 -29,12 -47,12 -33,0 -59,-13 -77,-40 -19,-27 -28,-66 -28,-117 0,-52 9,-91 27,-118 18,-27 45,-41 79,-41 17,0 32,4 44,12 12,7 23,19 33,36 l 0,-180 z m 372,310 -170,0 c 1,28 9,49 22,64 14,14 33,21 58,21 12,0 25,-2 37,-5 13,-4 25,-9 37,-17 l 0,55 c -13,7 -27,12 -41,15 -14,3 -28,5 -44,5 -45,0 -79,-14 -104,-41 -24,-27 -36,-66 -36,-116 0,-49 11,-88 34,-116 22,-28 53,-43 93,-43 34,0 62,14 83,41 21,28 31,65 31,111 0,4 0,8 0,12 0,5 0,9 0,14 z m -66,-44 0,-5 c 0,-25 -5,-45 -13,-58 -8,-13 -20,-20 -37,-20 -17,0 -30,7 -39,21 -9,13 -14,34 -16,62 l 105,0 z m 356,-178 0,136 29,0 c 24,0 41,-5 51,-16 10,-10 15,-28 15,-53 0,-24 -5,-41 -15,-51 -11,-10 -30,-16 -56,-16 l -24,0 z m -74,-56 94,0 c 51,0 89,10 113,30 24,20 36,51 36,94 0,42 -12,74 -36,94 -24,21 -61,31 -110,31 l -23,0 0,161 -74,0 0,-410 z m 439,101 0,67 c -1,0 -4,0 -8,-1 -4,0 -8,-1 -10,-1 -22,0 -38,7 -49,21 -11,14 -16,36 -16,65 l 0,158 -70,0 0,-233 c 0,-14 -1,-26 -1,-38 -1,-11 -1,-22 -2,-32 l 64,-1 0,2 c 2,19 2,33 2,42 l 0,9 c 8,-19 19,-34 32,-44 14,-9 30,-14 49,-14 0,0 0,0 0,0 3,0 6,0 9,0 z m 154,52 c -18,0 -32,9 -42,28 -9,18 -14,44 -14,78 0,33 5,59 14,77 10,18 24,27 42,27 19,0 33,-9 42,-27 10,-17 15,-43 15,-77 0,-34 -5,-60 -15,-78 -10,-19 -24,-28 -42,-28 z m 0,-53 c 42,0 74,14 97,41 23,27 34,66 34,117 0,51 -11,90 -34,117 -23,27 -55,41 -97,41 -42,0 -74,-14 -97,-41 -22,-28 -34,-66 -34,-117 0,-51 12,-89 34,-117 23,-27 55,-41 97,-41 z m 382,13 -4,58 c -8,-5 -16,-8 -25,-10 -9,-3 -18,-4 -27,-4 -24,0 -43,8 -56,25 -13,17 -19,41 -19,72 0,34 6,60 19,78 14,18 33,27 57,27 10,0 19,-1 29,-4 9,-2 18,-6 27,-11 l 3,58 c -12,5 -25,8 -37,10 -13,3 -26,4 -40,4 -41,0 -73,-14 -97,-42 -24,-29 -36,-67 -36,-114 0,-51 12,-90 37,-118 24,-28 59,-42 102,-42 11,0 21,1 32,4 12,2 23,5 35,9 z m 273,165 -169,0 c 1,28 8,49 22,64 13,14 33,21 57,21 13,0 26,-2 38,-5 12,-4 24,-9 36,-17 l 0,55 c -13,7 -26,12 -40,15 -14,3 -29,5 -44,5 -45,0 -80,-14 -104,-41 -25,-27 -37,-66 -37,-116 0,-49 12,-88 34,-116 23,-28 54,-43 93,-43 35,0 62,14 83,41 21,28 32,65 32,111 0,4 0,8 0,12 0,5 0,9 -1,14 z m -66,-44 0,-5 c 0,-25 -4,-45 -12,-58 -9,-13 -21,-20 -37,-20 -17,0 -30,7 -39,21 -9,13 -15,34 -16,62 l 104,0 z m 288,-122 -2,57 c -10,-5 -21,-8 -31,-11 -10,-2 -21,-3 -31,-3 -15,0 -26,2 -33,8 -8,5 -12,12 -12,22 0,8 3,15 8,21 6,6 19,14 41,24 31,14 52,28 62,41 10,13 15,30 15,50 0,29 -10,52 -30,70 -21,17 -48,25 -82,25 -13,0 -27,-1 -40,-3 -14,-3 -28,-7 -41,-12 l 3,-61 c 12,7 25,13 39,17 14,4 27,6 40,6 15,0 27,-3 35,-9 9,-6 13,-14 13,-24 0,-12 -14,-25 -43,-38 l -4,-3 c -31,-14 -52,-28 -64,-42 -11,-14 -17,-32 -17,-53 0,-27 10,-50 28,-67 19,-18 44,-26 74,-26 13,0 25,1 37,3 13,1 24,4 35,8 z m 238,0 -3,57 c -10,-5 -20,-8 -30,-11 -10,-2 -21,-3 -32,-3 -14,0 -25,2 -33,8 -8,5 -11,12 -11,22 0,8 2,15 8,21 5,6 19,14 40,24 32,14 52,28 62,41 10,13 16,30 16,50 0,29 -11,52 -31,70 -20,17 -47,25 -81,25 -14,0 -27,-1 -41,-3 -14,-3 -27,-7 -40,-12 l 2,-61 c 13,7 26,13 40,17 13,4 27,6 40,6 15,0 26,-3 35,-9 8,-6 12,-14 12,-24 0,-12 -14,-25 -42,-38 l -5,-3 c -31,-14 -52,-28 -63,-42 -12,-14 -17,-32 -17,-53 0,-27 9,-50 28,-67 19,-18 43,-26 73,-26 13,0 26,1 38,3 12,1 24,4 35,8 z m 223,152 c -1,0 -3,0 -6,-1 -8,0 -14,-1 -19,-1 -27,0 -46,5 -59,14 -13,10 -20,24 -20,43 0,14 4,25 12,33 8,8 19,12 34,12 20,0 35,-6 44,-19 10,-13 14,-34 14,-61 l 0,-20 z m 69,-34 0,120 c 0,12 1,23 1,33 1,9 2,18 3,27 l -66,0 -4,-38 c -11,15 -24,26 -38,33 -14,8 -30,11 -48,11 -26,0 -48,-8 -64,-25 -16,-17 -24,-40 -24,-67 0,-34 12,-59 36,-77 25,-17 60,-26 106,-26 6,0 11,0 16,0 4,0 9,0 13,0 l 0,-13 c 0,-18 -5,-32 -15,-42 -11,-9 -26,-14 -45,-14 -15,0 -28,2 -41,7 -13,5 -25,12 -36,21 l -5,-57 c 16,-7 33,-13 49,-17 16,-4 32,-6 48,-6 42,0 72,10 89,28 17,19 25,53 25,102 z m 295,-81 c 8,-16 20,-28 33,-37 14,-8 30,-12 49,-12 26,0 46,9 60,26 14,17 21,42 21,75 l 0,209 -70,0 0,-195 c 0,-19 -3,-33 -10,-41 -6,-9 -16,-13 -30,-13 -14,0 -25,6 -34,19 -8,13 -12,30 -12,53 l 0,177 -70,0 0,-195 c 0,-19 -4,-33 -10,-41 -6,-9 -16,-13 -29,-13 -15,0 -26,6 -35,19 -8,13 -12,30 -12,53 l 0,177 -70,0 0,-233 c 0,-14 -1,-26 -1,-38 -1,-11 -1,-22 -2,-32 l 64,0 c 0,2 1,6 1,12 1,14 2,25 2,33 7,-16 17,-29 31,-38 14,-9 30,-14 47,-14 18,0 34,4 47,13 13,8 23,20 30,36 z m 462,129 -170,0 c 2,28 9,49 23,64 13,14 32,21 57,21 13,0 25,-2 38,-5 12,-4 24,-9 36,-17 l 0,55 c -13,7 -27,12 -40,15 -14,3 -29,5 -45,5 -44,0 -79,-14 -103,-41 -25,-27 -37,-66 -37,-116 0,-49 11,-88 34,-116 23,-28 54,-43 93,-43 34,0 62,14 83,41 21,28 32,65 32,111 0,4 0,8 0,12 -1,5 -1,9 -1,14 z m -66,-44 0,-5 c 0,-25 -4,-45 -13,-58 -8,-13 -20,-20 -36,-20 -17,0 -30,7 -39,21 -10,13 -15,34 -17,62 l 105,0 z m 360,-33 0,209 -71,0 0,-195 c 0,-19 -4,-33 -10,-41 -7,-9 -17,-13 -32,-13 -15,0 -26,6 -35,19 -9,12 -14,30 -14,52 l 0,1 0,177 -71,0 0,-233 c 0,-14 0,-26 0,-38 -1,-11 -2,-22 -2,-32 l 64,0 c 0,2 0,6 1,12 1,14 2,25 2,33 7,-17 18,-29 33,-38 15,-9 31,-14 50,-14 27,0 48,9 63,26 14,17 22,42 22,75 z m 153,-178 0,84 59,0 0,51 -59,0 0,147 c 0,23 3,38 8,45 5,7 14,10 26,10 5,0 9,0 14,-1 4,-1 9,-2 14,-3 l 0,52 c -9,2 -17,4 -26,5 -8,1 -16,2 -24,2 -30,0 -51,-8 -64,-22 -12,-14 -18,-43 -18,-87 l 0,-148 -48,0 0,-51 48,0 0,-63 70,-21 z m 225,130 c -18,0 -32,9 -42,28 -10,18 -15,44 -15,78 0,33 5,59 15,77 10,18 24,27 42,27 18,0 32,-9 42,-27 9,-17 14,-43 14,-77 0,-34 -5,-60 -15,-78 -9,-19 -23,-28 -41,-28 z m -1,-53 c 42,0 75,14 97,41 23,27 34,66 34,117 0,51 -11,90 -34,117 -22,27 -55,41 -97,41 -41,0 -74,-14 -96,-41 -23,-28 -34,-66 -34,-117 0,-51 11,-89 34,-117 22,-27 54,-41 96,-41 z m 510,143 c 0,-28 -5,-49 -15,-64 -9,-16 -23,-23 -40,-23 -18,0 -31,8 -40,26 -9,17 -14,43 -14,77 0,34 5,59 14,77 9,17 22,25 40,25 17,0 31,-7 40,-22 10,-16 15,-37 15,-65 l 0,-31 z m 0,-275 70,0 0,442 -65,0 c -1,-11 -2,-19 -2,-26 0,-7 0,-13 0,-20 -10,18 -22,32 -35,40 -13,8 -28,12 -46,12 -34,0 -60,-13 -78,-40 -18,-27 -27,-66 -27,-117 0,-52 9,-91 27,-118 18,-27 44,-41 79,-41 17,0 31,4 44,12 12,7 23,19 33,36 l 0,-180 z m 371,310 -169,0 c 1,28 8,49 22,64 13,14 33,21 57,21 13,0 26,-2 38,-5 12,-4 24,-9 36,-17 l 0,55 c -13,7 -26,12 -40,15 -14,3 -29,5 -44,5 -45,0 -80,-14 -104,-41 -25,-27 -37,-66 -37,-116 0,-49 11,-88 34,-116 23,-28 54,-43 93,-43 35,0 62,14 83,41 21,28 32,65 32,111 0,4 0,8 0,12 0,5 0,9 -1,14 z m -66,-44 0,-5 c 0,-25 -4,-45 -12,-58 -9,-13 -21,-20 -37,-20 -17,0 -30,7 -39,21 -9,13 -15,34 -17,62 l 105,0 z m 283,-234 74,0 0,410 -74,0 0,-410 z m 375,149 c 9,-16 20,-28 34,-37 13,-8 30,-12 49,-12 26,0 46,9 59,26 14,17 21,42 21,75 l 0,209 -70,0 0,-195 c 0,-19 -3,-33 -9,-41 -7,-9 -17,-13 -30,-13 -15,0 -26,6 -34,19 -8,13 -13,30 -13,53 l 0,177 -70,0 0,-195 c 0,-19 -3,-33 -9,-41 -7,-9 -17,-13 -30,-13 -14,0 -26,6 -34,19 -8,13 -13,30 -13,53 l 0,177 -70,0 0,-233 c 0,-14 0,-26 -1,-38 0,-11 -1,-22 -2,-32 l 64,0 c 1,2 1,6 2,12 1,14 1,25 1,33 7,-16 18,-29 32,-38 14,-9 29,-14 46,-14 19,0 34,4 48,13 13,8 23,20 29,36 z m 385,115 c -1,0 -3,0 -6,-1 -8,0 -14,-1 -19,-1 -27,0 -46,5 -59,14 -13,10 -20,24 -20,43 0,14 4,25 12,33 8,8 19,12 33,12 21,0 35,-6 45,-19 9,-13 14,-34 14,-61 l 0,-20 z m 69,-34 0,120 c 0,12 1,23 1,33 1,9 2,18 3,27 l -66,0 -5,-38 c -11,15 -23,26 -37,33 -14,8 -30,11 -48,11 -27,0 -48,-8 -64,-25 -16,-17 -24,-40 -24,-67 0,-34 12,-59 36,-77 25,-17 60,-26 106,-26 6,0 11,0 16,0 4,0 9,0 13,0 l 0,-13 c 0,-18 -5,-32 -15,-42 -11,-9 -26,-14 -45,-14 -15,0 -29,2 -41,7 -13,5 -25,12 -36,21 l -5,-57 c 16,-7 32,-13 49,-17 16,-4 32,-6 47,-6 43,0 72,10 90,28 17,19 25,53 25,102 z"
         id="path15-8-9"
         inkscape:connector-curvature="0"
         style="fill:#373435;fill-opacity:1;fill-rule:nonzero" /><path
         class="fil2"
         d="m 12794,13888 c 0,-27 -4,-48 -14,-63 -10,-14 -23,-22 -40,-22 -18,0 -31,8 -40,25 -9,17 -14,41 -14,73 0,34 5,59 14,76 9,17 22,25 39,25 18,0 31,-7 41,-22 10,-14 14,-35 14,-62 l 0,-30 z m 3,-88 c 0,-10 1,-24 3,-44 l 0,-1 68,0 c -1,7 -1,16 -1,27 -1,30 -2,47 -2,52 l 0,179 c 0,42 -3,73 -8,91 -5,18 -15,34 -28,48 -11,12 -26,21 -44,28 -18,6 -38,9 -61,9 -19,0 -37,-1 -53,-4 -17,-3 -32,-7 -47,-13 l 4,-60 c 14,7 27,13 42,17 14,4 29,6 44,6 28,0 49,-8 62,-24 13,-17 19,-43 19,-79 0,-5 0,-9 0,-12 0,-2 0,-5 -1,-7 -9,15 -20,27 -32,34 -12,7 -27,11 -45,11 -34,0 -61,-13 -78,-39 -18,-26 -27,-65 -27,-117 0,-49 9,-86 27,-113 19,-27 45,-41 78,-41 18,0 33,4 46,13 13,8 25,21 34,39 z m 369,126 -169,0 c 1,28 8,49 22,64 13,14 32,21 57,21 13,0 25,-2 38,-5 12,-4 24,-9 36,-17 l 0,55 c -13,7 -26,12 -40,15 -14,3 -29,5 -44,5 -45,0 -80,-14 -104,-41 -25,-27 -37,-66 -37,-116 0,-49 11,-88 34,-116 23,-28 54,-43 93,-43 35,0 62,14 83,41 21,28 32,65 32,111 0,4 0,8 0,12 0,5 -1,9 -1,14 z m -66,-44 0,-5 c 0,-25 -4,-45 -12,-58 -9,-13 -21,-20 -37,-20 -17,0 -30,7 -39,21 -9,13 -15,34 -17,62 l 105,0 z m 360,-33 0,209 -71,0 0,-195 c 0,-19 -3,-33 -10,-41 -7,-9 -17,-13 -31,-13 -15,0 -27,6 -36,19 -9,12 -14,30 -14,52 l 0,1 0,177 -70,0 0,-233 c 0,-14 -1,-26 -1,-38 -1,-11 -1,-22 -2,-32 l 64,0 c 0,2 0,6 1,12 1,14 2,25 2,33 7,-17 18,-29 33,-38 15,-9 31,-14 50,-14 27,0 48,9 63,26 15,17 22,42 22,75 z m 235,-89 -2,57 c -11,-5 -21,-8 -31,-11 -10,-2 -21,-3 -32,-3 -14,0 -25,2 -33,8 -7,5 -11,12 -11,22 0,8 2,15 8,21 5,6 19,14 40,24 32,14 52,28 63,41 10,13 15,30 15,50 0,29 -11,52 -31,70 -20,17 -47,25 -81,25 -14,0 -27,-1 -41,-3 -14,-3 -27,-7 -40,-12 l 2,-61 c 13,7 26,13 40,17 13,4 27,6 40,6 15,0 26,-3 35,-9 8,-6 12,-14 12,-24 0,-12 -14,-25 -42,-38 l -5,-3 c -31,-14 -52,-28 -63,-42 -12,-14 -17,-32 -17,-53 0,-27 9,-50 28,-67 19,-18 43,-26 73,-26 13,0 26,1 38,3 12,1 24,4 35,8 z m 451,166 -169,0 c 1,28 9,49 22,64 13,14 33,21 57,21 13,0 26,-2 38,-5 12,-4 25,-9 36,-17 l 0,55 c -13,7 -26,12 -40,15 -14,3 -29,5 -44,5 -45,0 -80,-14 -104,-41 -25,-27 -37,-66 -37,-116 0,-49 12,-88 34,-116 23,-28 54,-43 93,-43 35,0 62,14 83,41 21,28 32,65 32,111 0,4 0,8 0,12 0,5 0,9 -1,14 z m -66,-44 0,-5 c 0,-25 -4,-45 -12,-58 -8,-13 -21,-20 -37,-20 -17,0 -30,7 -39,21 -9,13 -15,34 -16,62 l 104,0 z m 559,-224 -5,63 c -13,-8 -27,-14 -41,-18 -14,-3 -30,-5 -47,-5 -40,0 -70,14 -91,41 -22,27 -33,66 -33,115 0,48 10,86 30,113 20,27 47,40 82,40 10,0 18,-1 26,-2 7,-1 14,-3 21,-6 l 0,-114 -60,0 0,-57 130,0 0,214 c -16,7 -33,13 -53,16 -19,4 -40,6 -62,6 -61,0 -109,-18 -142,-54 -34,-36 -50,-87 -50,-153 0,-68 17,-121 52,-159 36,-38 84,-57 147,-57 17,0 33,2 49,4 16,3 32,7 47,13 z m 308,268 -170,0 c 1,28 9,49 22,64 14,14 33,21 58,21 12,0 25,-2 37,-5 13,-4 25,-9 37,-17 l 0,55 c -14,7 -27,12 -41,15 -14,3 -29,5 -44,5 -45,0 -80,-14 -104,-41 -24,-27 -37,-66 -37,-116 0,-49 12,-88 34,-116 23,-28 54,-43 93,-43 35,0 63,14 84,41 21,28 31,65 31,111 0,4 0,8 0,12 0,5 0,9 0,14 z m -67,-44 0,-5 c 0,-25 -4,-45 -12,-58 -8,-13 -21,-20 -37,-20 -17,0 -30,7 -39,21 -9,13 -14,34 -16,62 l 104,0 z m 242,-81 c -18,0 -32,9 -41,28 -10,18 -15,44 -15,78 0,33 5,59 15,77 9,18 23,27 41,27 19,0 33,-9 42,-27 10,-17 15,-43 15,-77 0,-34 -5,-60 -15,-78 -10,-19 -23,-28 -42,-28 z m 0,-53 c 42,0 74,14 97,41 23,27 34,66 34,117 0,51 -11,90 -34,117 -23,27 -55,41 -97,41 -42,0 -74,-14 -97,-41 -22,-28 -34,-66 -34,-117 0,-51 12,-89 34,-117 23,-27 55,-41 97,-41 z m 263,269 0,171 -70,0 0,-355 c 0,-3 -1,-17 -2,-41 0,-16 -1,-28 -1,-37 l 67,0 c 1,10 2,19 2,26 0,7 1,14 1,19 9,-18 21,-31 34,-39 12,-9 28,-13 46,-13 34,0 60,14 79,41 18,27 27,66 27,117 0,52 -9,91 -28,118 -18,27 -44,40 -79,40 -17,0 -32,-3 -44,-11 -12,-7 -23,-20 -32,-36 z m 0,-96 c 0,29 5,50 14,65 9,15 23,23 40,23 18,0 31,-9 40,-26 9,-17 14,-43 14,-77 0,-34 -5,-60 -14,-77 -9,-17 -22,-26 -40,-26 -17,0 -31,8 -40,23 -9,15 -14,36 -14,64 l 0,31 z m 396,-172 0,67 c 0,0 -3,0 -7,-1 -5,0 -8,-1 -10,-1 -22,0 -39,7 -49,21 -11,14 -16,36 -16,65 l 0,158 -71,0 0,-233 c 0,-14 0,-26 0,-38 -1,-11 -2,-22 -2,-32 l 64,-1 0,2 c 1,19 2,33 2,42 l 0,9 c 8,-19 19,-34 32,-44 14,-9 30,-14 49,-14 0,0 0,0 0,0 3,0 6,0 8,0 z m 155,52 c -18,0 -32,9 -42,28 -9,18 -14,44 -14,78 0,33 5,59 14,77 10,18 24,27 42,27 19,0 33,-9 42,-27 10,-17 15,-43 15,-77 0,-34 -5,-60 -15,-78 -10,-19 -24,-28 -42,-28 z m 0,-53 c 42,0 74,14 97,41 23,27 34,66 34,117 0,51 -11,90 -34,117 -23,27 -55,41 -97,41 -42,0 -74,-14 -97,-41 -22,-28 -34,-66 -34,-117 0,-51 12,-89 34,-117 23,-27 55,-41 97,-41 z m 382,13 -4,58 c -8,-5 -16,-8 -25,-10 -9,-3 -18,-4 -27,-4 -24,0 -43,8 -56,25 -13,17 -20,41 -20,72 0,34 7,60 20,78 14,18 33,27 57,27 10,0 19,-1 28,-4 10,-2 19,-6 28,-11 l 3,58 c -13,5 -25,8 -38,10 -12,3 -25,4 -39,4 -41,0 -73,-14 -97,-42 -24,-29 -36,-67 -36,-114 0,-51 12,-90 37,-118 24,-28 59,-42 102,-42 11,0 21,1 32,4 12,2 23,5 35,9 z m 273,165 -169,0 c 1,28 8,49 22,64 13,14 32,21 57,21 13,0 25,-2 38,-5 12,-4 24,-9 36,-17 l 0,55 c -13,7 -26,12 -40,15 -14,3 -29,5 -44,5 -45,0 -80,-14 -104,-41 -25,-27 -37,-66 -37,-116 0,-49 11,-88 34,-116 23,-28 54,-43 93,-43 35,0 62,14 83,41 21,28 32,65 32,111 0,4 0,8 0,12 0,5 -1,9 -1,14 z m -66,-44 0,-5 c 0,-25 -4,-45 -12,-58 -9,-13 -21,-20 -37,-20 -17,0 -30,7 -39,21 -9,13 -15,34 -17,62 l 105,0 z m 288,-122 -2,57 c -10,-5 -21,-8 -31,-11 -10,-2 -21,-3 -32,-3 -14,0 -25,2 -32,8 -8,5 -12,12 -12,22 0,8 3,15 8,21 5,6 19,14 40,24 32,14 53,28 63,41 10,13 15,30 15,50 0,29 -10,52 -31,70 -20,17 -47,25 -81,25 -13,0 -27,-1 -40,-3 -14,-3 -28,-7 -41,-12 l 3,-61 c 12,7 25,13 39,17 14,4 27,6 40,6 15,0 27,-3 35,-9 8,-6 13,-14 13,-24 0,-12 -15,-25 -43,-38 l -4,-3 c -31,-14 -52,-28 -64,-42 -11,-14 -17,-32 -17,-53 0,-27 9,-50 28,-67 19,-18 44,-26 74,-26 13,0 25,1 37,3 12,1 24,4 35,8 z m 238,0 -3,57 c -10,-5 -20,-8 -30,-11 -11,-2 -21,-3 -32,-3 -14,0 -25,2 -33,8 -8,5 -11,12 -11,22 0,8 2,15 8,21 5,6 18,14 40,24 31,14 52,28 62,41 10,13 15,30 15,50 0,29 -10,52 -30,70 -20,17 -47,25 -82,25 -13,0 -26,-1 -40,-3 -14,-3 -27,-7 -40,-12 l 2,-61 c 13,7 26,13 39,17 14,4 28,6 40,6 16,0 27,-3 36,-9 8,-6 12,-14 12,-24 0,-12 -14,-25 -42,-38 l -5,-3 c -31,-14 -52,-28 -63,-42 -12,-14 -18,-32 -18,-53 0,-27 10,-50 29,-67 19,-18 43,-26 73,-26 13,0 26,1 38,3 12,1 24,4 35,8 z m 223,152 c -1,0 -3,0 -6,-1 -8,0 -14,-1 -19,-1 -27,0 -46,5 -59,14 -13,10 -20,24 -20,43 0,14 4,25 12,33 8,8 19,12 34,12 20,0 35,-6 44,-19 9,-13 14,-34 14,-61 l 0,-20 z m 69,-34 0,120 c 0,12 1,23 1,33 1,9 2,18 3,27 l -66,0 -5,-38 c -11,15 -23,26 -37,33 -14,8 -30,11 -48,11 -27,0 -48,-8 -64,-25 -16,-17 -24,-40 -24,-67 0,-34 12,-59 36,-77 25,-17 60,-26 106,-26 6,0 11,0 16,0 4,0 9,0 13,0 l 0,-13 c 0,-18 -5,-32 -15,-42 -11,-9 -26,-14 -45,-14 -15,0 -28,2 -41,7 -13,5 -25,12 -36,21 l -5,-57 c 16,-7 32,-13 49,-17 16,-4 32,-6 47,-6 43,0 72,10 90,28 17,19 25,53 25,102 z m 295,-81 c 8,-16 19,-28 33,-37 14,-8 30,-12 49,-12 26,0 46,9 60,26 14,17 21,42 21,75 l 0,209 -70,0 0,-195 c 0,-19 -4,-33 -10,-41 -6,-9 -16,-13 -30,-13 -14,0 -25,6 -34,19 -8,13 -12,30 -12,53 l 0,177 -70,0 0,-195 c 0,-19 -4,-33 -10,-41 -6,-9 -16,-13 -29,-13 -15,0 -27,6 -35,19 -8,13 -12,30 -12,53 l 0,177 -71,0 0,-233 c 0,-14 0,-26 0,-38 -1,-11 -1,-22 -2,-32 l 64,0 c 0,2 0,6 1,12 1,14 2,25 2,33 7,-16 17,-29 31,-38 14,-9 30,-14 47,-14 18,0 34,4 47,13 13,8 23,20 30,36 z m 462,129 -170,0 c 2,28 9,49 23,64 13,14 32,21 57,21 13,0 25,-2 38,-5 12,-4 24,-9 36,-17 l 0,55 c -13,7 -27,12 -41,15 -13,3 -28,5 -44,5 -44,0 -79,-14 -104,-41 -24,-27 -36,-66 -36,-116 0,-49 11,-88 34,-116 23,-28 54,-43 93,-43 34,0 62,14 83,41 21,28 32,65 32,111 0,4 0,8 -1,12 0,5 0,9 0,14 z m -66,-44 0,-5 c 0,-25 -4,-45 -13,-58 -8,-13 -20,-20 -36,-20 -17,0 -30,7 -40,21 -9,13 -14,34 -16,62 l 105,0 z m 360,-33 0,209 -71,0 0,-195 c 0,-19 -4,-33 -10,-41 -7,-9 -17,-13 -32,-13 -15,0 -27,6 -35,19 -9,12 -14,30 -14,52 l 0,1 0,177 -71,0 0,-233 c 0,-14 0,-26 0,-38 -1,-11 -2,-22 -3,-32 l 65,0 c 0,2 0,6 1,12 1,14 2,25 2,33 7,-17 18,-29 33,-38 14,-9 31,-14 49,-14 28,0 49,9 64,26 14,17 22,42 22,75 z m 153,-178 0,84 59,0 0,51 -59,0 0,147 c 0,23 3,38 8,45 5,7 13,10 26,10 5,0 9,0 14,-1 4,-1 9,-2 14,-3 l 0,52 c -9,2 -17,4 -26,5 -8,1 -16,2 -24,2 -30,0 -52,-8 -64,-22 -12,-14 -18,-43 -18,-87 l 0,-148 -49,0 0,-51 49,0 0,-63 70,-21 z m 225,130 c -18,0 -32,9 -42,28 -10,18 -15,44 -15,78 0,33 5,59 15,77 10,18 24,27 42,27 18,0 32,-9 42,-27 9,-17 14,-43 14,-77 0,-34 -5,-60 -15,-78 -9,-19 -23,-28 -41,-28 z m -1,-53 c 42,0 75,14 97,41 23,27 34,66 34,117 0,51 -11,90 -34,117 -22,27 -55,41 -97,41 -42,0 -74,-14 -96,-41 -23,-28 -34,-66 -34,-117 0,-51 11,-89 33,-117 23,-27 55,-41 97,-41 z"
         id="path17-3-3"
         inkscape:connector-curvature="0"
         style="fill:#373435;fill-opacity:1;fill-rule:nonzero" /></g><polygon
       class="fil1"
       points="1752,14259 2508,13511 3184,13511 2428,14259 "
       id="polygon12-9-0"
       style="clip-rule:evenodd;fill:#549151;fill-opacity:1;fill-rule:evenodd;image-rendering:optimizeQuality;shape-rendering:geometricPrecision;text-rendering:geometricPrecision"
       transform="matrix(1.0329362,0,0,0.65628109,-1706.4147,-3419.7912)" /></g></svg>