<?xml version="1.0" encoding="utf-8"?>
<!-- Generator: Adobe Illustrator 21.1.0, SVG Export Plug-In . SVG Version: 6.00 Build 0)  -->
<svg version="1.1" id="Layer_1" xmlns="http://www.w3.org/2000/svg" xmlns:xlink="http://www.w3.org/1999/xlink" x="0px" y="0px"
	 viewBox="0 0 255 84" style="enable-background:new 0 0 255 84;" xml:space="preserve">
<style type="text/css">
	.st0{fill:#2B2F32;}
	.st1{fill:#E13E3E;}
</style>
<g>
	<g>
		<path class="st0" d="M125.7,66.1c0,2.6-1.1,4.1-3.1,4.1h-1.4v4.7h-2.2V62h3.5C124.5,62,125.7,63.4,125.7,66.1z M121.1,68.4h1.3
			c0.8,0,1.1-0.6,1.1-2.2c0-1.7-0.3-2.2-1.1-2.2h-1.3V68.4z"/>
		<path class="st0" d="M128.5,74.8h-2.2l2.9-12.8h2.6l2.9,12.8h-2.3l-0.5-2.9h-2.8L128.5,74.8z M129.4,70.2h2.2l-1.1-6h0L129.4,70.2
			z"/>
		<path class="st0" d="M139.7,69.6h-0.9v5.3h-2.2V62h3.4c2.3,0,3.2,1.3,3.2,3.7c0,1.8-0.5,2.9-1.6,3.4l2.1,5.8h-2.3L139.7,69.6z
			 M138.8,67.8h1.1c0.9,0,1.2-0.5,1.2-1.9c0-1.5-0.3-1.9-1.2-1.9h-1.1V67.8z"/>
		<path class="st0" d="M151.4,62v2h-2.2v10.8H147V64h-2.2v-2H151.4z"/>
		<path class="st0" d="M155,62l3.4,7.3h0V62h2v12.8h-1.5l-3.5-7.6h0v7.6h-2V62H155z"/>
		<path class="st0" d="M168.9,62v2h-3.6v3.3h2.8v1.8h-2.8v3.7h3.8v2h-6V62H168.9z"/>
		<path class="st0" d="M174.4,69.6h-0.9v5.3h-2.2V62h3.4c2.3,0,3.2,1.3,3.2,3.7c0,1.8-0.5,2.9-1.6,3.4l2.1,5.8h-2.3L174.4,69.6z
			 M173.5,67.8h1.1c0.9,0,1.2-0.5,1.2-1.9c0-1.5-0.3-1.9-1.2-1.9h-1.1V67.8z"/>
		<path class="st0" d="M186.3,64.7l-1.6,0.6c-0.3-1.1-0.7-1.6-1.4-1.6c-0.8,0-1.2,0.5-1.2,1.3c0,2.3,4.3,2.6,4.3,6.4
			c0,2.3-1.3,3.6-3.3,3.6c-1.6,0-3-1.1-3.4-3.1l1.8-0.5c0.3,1.3,0.9,1.7,1.6,1.7c0.8,0,1.2-0.4,1.2-1.4c0-2.7-4.4-2.8-4.4-6.6
			c0-1.9,1.2-3.4,3.1-3.4C184.8,61.8,185.8,62.9,186.3,64.7z"/>
		<path class="st0" d="M190.7,62v5.2h2.6V62h2.2v12.8h-2.2v-5.6h-2.6v5.6h-2.2V62H190.7z"/>
		<path class="st0" d="M200.6,62v12.8h-2.2V62H200.6z"/>
		<path class="st0" d="M210.2,66.1c0,2.6-1.1,4.1-3.1,4.1h-1.4v4.7h-2.2V62h3.5C209.1,62,210.2,63.4,210.2,66.1z M205.7,68.4h1.3
			c0.8,0,1.1-0.6,1.1-2.2c0-1.7-0.3-2.2-1.1-2.2h-1.3V68.4z"/>
	</g>
	<g>
		<path class="st0" d="M225.8,61.8v2.1h-3.7v3.5h3.2v1.9h-3.2v5.5h-2.2v-13H225.8z"/>
		<path class="st0" d="M235.2,61.8V71c0,2.6-1.3,4-3.6,4c-2.3,0-3.7-1.4-3.7-3.9v-9.3h2.3v9.3c0,1.3,0.6,1.8,1.4,1.8
			c0.9,0,1.4-0.5,1.4-1.8v-9.3H235.2z"/>
		<path class="st0" d="M239.5,61.8l3.4,7.4h0v-7.4h2v13h-1.5l-3.6-7.7h0v7.7h-2v-13H239.5z"/>
		<path class="st0" d="M251.3,61.8c2.3,0,3.7,1.5,3.7,4.1v4.8c0,2.6-1.4,4.1-3.7,4.1h-3.6v-13H251.3z M251.3,63.8h-1.4v9h1.4
			c1,0,1.4-0.5,1.4-2.2V66C252.7,64.4,252.3,63.8,251.3,63.8z"/>
	</g>
	<g>
		<path class="st1" d="M11.6,25l-3,0.9c-0.4-1.9-1.1-2.7-2.3-2.7c-1.6,0-2.3,1.2-2.3,3.5v9.8c0,2,0.7,3.2,2.3,3.2
			c1.3,0,2-0.8,2.3-2.9l3.1,0.9c-0.6,3.8-2.5,5.4-5.7,5.4c-3.7,0-5.9-2.6-5.9-6.6v-9.9c0-4.4,2.3-7,6-7C9,19.7,11.1,21.8,11.6,25z"
			/>
		<path class="st1" d="M21,33.5h-1.6v9.3h-3.9V20h6c4,0,5.8,2.3,5.8,6.5c0,3.3-1,5.2-2.8,6l3.8,10.3H24L21,33.5z M19.4,30.3h1.9
			c1.6,0,2.1-0.9,2.1-3.5c0-2.7-0.6-3.3-2.1-3.3h-1.9V30.3z"/>
		<path class="st1" d="M35.9,20v22.8h-3.9V20H35.9z"/>
		<path class="st1" d="M51.5,20v3.6h-3.9v19.2h-3.9V23.6h-3.9V20H51.5z"/>
		<path class="st1" d="M59.2,20v22.8h-3.9V20H59.2z"/>
		<path class="st1" d="M75.4,25l-3,0.9c-0.4-1.9-1.1-2.7-2.3-2.7c-1.6,0-2.3,1.2-2.3,3.5v9.8c0,2,0.7,3.2,2.3,3.2
			c1.3,0,2-0.8,2.3-2.9l3.1,0.9c-0.6,3.8-2.5,5.4-5.7,5.4c-3.7,0-5.9-2.6-5.9-6.6v-9.9c0-4.4,2.3-7,6-7C72.8,19.7,74.9,21.8,75.4,25
			z"/>
		<path class="st1" d="M81.7,42.8h-3.9L82.9,20h4.6l5.2,22.8h-4l-1-5.1h-5L81.7,42.8z M83.3,34.6h3.9L85.2,24h-0.1L83.3,34.6z"/>
		<path class="st1" d="M100,20v19.2h6.1v3.7h-10V20H100z"/>
	</g>
	<g>
		<path class="st1" d="M129.2,29.8v3.6h-6.4v5.8h4.9v3.2h-4.9v6.6h6.7v3.6h-10.6V29.8H129.2z"/>
		<path class="st1" d="M144.5,34.8l-3,0.9c-0.4-1.9-1.1-2.7-2.3-2.7c-1.6,0-2.3,1.2-2.3,3.5v9.8c0,2,0.7,3.2,2.3,3.2
			c1.3,0,2-0.8,2.3-2.9l3.1,0.9c-0.6,3.8-2.5,5.4-5.7,5.4c-3.7,0-5.9-2.6-5.9-6.6v-9.9c0-4.4,2.3-7,6-7
			C141.9,29.5,144,31.7,144.5,34.8z"/>
		<path class="st1" d="M160.6,36.6v9.2c0,4.5-2.2,7.1-6.4,7.1c-4.2,0-6.4-2.6-6.4-7.1v-9.2c0-4.5,2.2-7.1,6.4-7.1
			C158.4,29.5,160.6,32.1,160.6,36.6z M156.7,36.7c0-2.7-0.8-3.7-2.4-3.7c-1.7,0-2.5,0.9-2.5,3.6v9.2c0,2.7,0.8,3.7,2.4,3.7
			c1.7,0,2.5-1,2.5-3.7V36.7z"/>
		<path class="st1" d="M175.4,34.6l-2.9,1.1c-0.4-2-1.3-2.8-2.6-2.8c-1.4,0-2.1,0.8-2.1,2.3c0,4.1,7.7,4.6,7.7,11.4
			c0,4.1-2.2,6.4-5.8,6.4c-2.9,0-5.4-2-6-5.5l3.1-0.9c0.4,2.3,1.6,3.1,2.8,3.1c1.5,0,2.1-0.8,2.1-2.5c0-4.8-7.8-5-7.8-11.7
			c0-3.4,2.1-6,5.6-6C172.8,29.5,174.6,31.5,175.4,34.6z"/>
		<path class="st1" d="M187,45.8v6.9H183v-7l-5.3-15.9h4.3l3,11.4h0.1l2.9-11.4h4.3L187,45.8z"/>
		<path class="st1" d="M205.6,34.6l-2.9,1.1c-0.4-2-1.3-2.8-2.6-2.8c-1.4,0-2.1,0.8-2.1,2.3c0,4.1,7.7,4.6,7.7,11.4
			c0,4.1-2.2,6.4-5.8,6.4c-2.9,0-5.4-2-6-5.5l3.1-0.9c0.4,2.3,1.6,3.1,2.8,3.1c1.5,0,2.1-0.8,2.1-2.5c0-4.8-7.8-5-7.8-11.7
			c0-3.4,2.1-6,5.6-6C203,29.5,204.8,31.5,205.6,34.6z"/>
		<path class="st1" d="M220,29.8v3.6h-3.9v19.2h-3.9V33.5h-3.9v-3.6H220z"/>
		<path class="st1" d="M233.9,29.8v3.6h-6.4v5.8h4.9v3.2h-4.9v6.6h6.7v3.6h-10.6V29.8H233.9z"/>
		<path class="st1" d="M255,29.8v22.8h-3.6V39.3h-0.1l-4,9.8h-1.8l-3.9-9.8h-0.1v13.4H238V29.8h3.7l4.8,13.4h0.1l4.8-13.4H255z"/>
	</g>
	<polygon class="st0" points="115.3,84 107.9,0 107.2,0 114.5,84 	"/>
</g>
</svg>
